<svg preserveAspectRatio="none" width="100%" height="100%" overflow="visible" style="display: block;" viewBox="0 0 20 24" fill="none" xmlns="http://www.w3.org/2000/svg">
<path id="Vector" d="M0.592729 1.63561C0.669525 1.17772 0.90829 0.761799 1.26635 0.462166C1.62441 0.162534 2.07844 -0.00127829 2.54727 7.51216e-06C3.03455 7.51216e-06 3.48061 0.172807 3.82727 0.459007C4.20332 0.161728 4.67029 -0.000131105 5.15152 7.51216e-06C5.65212 7.51216e-06 6.11273 0.171607 6.47576 0.459007C6.83456 0.16163 7.28782 -0.000907949 7.75576 7.51216e-06C8.2246 -0.00127829 8.67862 0.162534 9.03668 0.462166C9.39474 0.761799 9.63351 1.17772 9.7103 1.63561C9.93333 2.98681 10.303 5.47681 10.303 7.20001C10.3036 8.01045 10.1089 8.80934 9.73504 9.53032C9.36116 10.2513 8.81891 10.8736 8.15333 11.3454C7.76545 11.6214 7.57576 11.9544 7.57576 12.2394C7.57576 12.2622 7.57636 12.2778 7.57758 12.2958C7.63091 12.9534 8.18182 19.7808 8.18182 21C8.18182 21.7957 7.86256 22.5587 7.29426 23.1213C6.72597 23.6839 5.9552 24 5.15152 24C4.34783 24 3.57706 23.6839 3.00877 23.1213C2.44048 22.5587 2.12121 21.7957 2.12121 21C2.12121 19.7808 2.67212 12.9534 2.72485 12.2958C2.72655 12.2771 2.72736 12.2582 2.72727 12.2394C2.72727 11.9544 2.53818 11.6214 2.1497 11.3454C1.48412 10.8736 0.941876 10.2513 0.567995 9.53032C0.194114 8.80934 -0.000608778 8.01045 1.42975e-06 7.20001C1.42975e-06 5.47681 0.369698 2.98681 0.592729 1.63561ZM7.27273 7.65001C7.27273 7.84892 7.19291 8.03968 7.05084 8.18034C6.90877 8.32099 6.71607 8.40001 6.51515 8.40001C6.31423 8.40001 6.12154 8.32099 5.97946 8.18034C5.83739 8.03968 5.75758 7.84892 5.75758 7.65001V2.10001C5.75758 1.94088 5.69372 1.78826 5.58007 1.67574C5.46641 1.56322 5.31225 1.50001 5.15152 1.50001C4.99078 1.50001 4.83663 1.56322 4.72297 1.67574C4.60931 1.78826 4.54546 1.94088 4.54546 2.10001V7.65001C4.54546 7.84892 4.46564 8.03968 4.32357 8.18034C4.18149 8.32099 3.9888 8.40001 3.78788 8.40001C3.58696 8.40001 3.39427 8.32099 3.25219 8.18034C3.11012 8.03968 3.0303 7.84892 3.0303 7.65001V1.97821C3.0303 1.85138 2.97941 1.72975 2.88883 1.64007C2.79824 1.55039 2.67538 1.50001 2.54727 1.50001C2.31212 1.50001 2.12303 1.66381 2.08788 1.87801C1.86364 3.23821 1.51515 5.61541 1.51515 7.20001C1.51456 7.77228 1.65201 8.33642 1.91608 8.8455C2.18014 9.35457 2.56318 9.79385 3.03333 10.1268C3.65152 10.566 4.24243 11.2986 4.24243 12.2388C4.24243 12.2976 4.24061 12.3528 4.23576 12.4158C4.17758 13.128 3.63636 19.86 3.63636 21C3.63636 21.3978 3.796 21.7794 4.08014 22.0607C4.36429 22.342 4.74967 22.5 5.15152 22.5C5.55336 22.5 5.93874 22.342 6.22289 22.0607C6.50704 21.7794 6.66667 21.3978 6.66667 21C6.66667 19.86 6.12545 13.128 6.06788 12.4158C6.06327 12.3571 6.06084 12.2983 6.06061 12.2394C6.06061 11.2986 6.65152 10.5654 7.2697 10.1268C7.73985 9.79385 8.12289 9.35457 8.38695 8.8455C8.65102 8.33642 8.78847 7.77228 8.78788 7.20001C8.78788 5.61541 8.43939 3.23821 8.21515 1.87801C8.19644 1.77124 8.13992 1.67455 8.05574 1.60529C7.97156 1.53602 7.86521 1.4987 7.75576 1.50001C7.62765 1.50001 7.50479 1.55039 7.4142 1.64007C7.32362 1.72975 7.27273 1.85138 7.27273 1.97821V7.65001ZM17.8788 1.51921V11.25C17.8788 11.604 17.9927 13.248 18.1182 15.051L18.1267 15.1734C18.2964 17.613 18.4848 20.3346 18.4848 21C18.4848 21.3978 18.3252 21.7794 18.0411 22.0607C17.7569 22.342 17.3715 22.5 16.9697 22.5C16.5679 22.5 16.1825 22.342 15.8983 22.0607C15.6142 21.7794 15.4545 21.3978 15.4545 21C15.4545 20.4108 15.603 18.0084 15.7558 15.708C15.8454 14.3618 15.9377 13.0158 16.0327 11.67L16.0588 11.3028C16.0661 11.2001 16.052 11.097 16.0173 11C15.9827 10.9029 15.9282 10.814 15.8573 10.7387C15.7864 10.6634 15.7006 10.6033 15.6052 10.5622C15.5099 10.5212 15.407 10.5 15.303 10.5H13.4848C13.3643 10.5 13.2487 10.4526 13.1634 10.3682C13.0782 10.2838 13.0303 10.1694 13.0303 10.05V6.75001C13.0303 5.4355 13.5283 4.16881 14.4261 3.20028C15.3238 2.23176 16.5559 1.63188 17.8788 1.51921ZM14.4909 12L14.4527 12.5472C14.3958 13.3644 14.3194 14.4672 14.2442 15.6096C14.0939 17.874 13.9394 20.3466 13.9394 21C13.9394 21.7957 14.2587 22.5587 14.8269 23.1213C15.3952 23.6839 16.166 24 16.9697 24C17.7734 24 18.5442 23.6839 19.1124 23.1213C19.6807 22.5587 20 21.7957 20 21C20 20.2746 19.8091 17.5236 19.6436 15.1488L19.6382 15.0708C19.5061 13.1676 19.3939 11.544 19.3939 11.25V0.750007C19.3939 0.336007 19.0545 7.51216e-06 18.6364 7.51216e-06H18.3333C14.5679 7.51216e-06 11.5152 3.02221 11.5152 6.75001V10.05C11.5152 10.5672 11.7227 11.0632 12.0921 11.4289C12.4615 11.7946 12.9625 12 13.4848 12H14.4909Z" fill="var(--fill-0, #0B66FF)"/>
</svg>
