<svg preserveAspectRatio="none" width="100%" height="100%" overflow="visible" style="display: block;" viewBox="0 0 171.8 33.6" fill="none" xmlns="http://www.w3.org/2000/svg">
<g id="Group">
<g id="Group_2">
<path id="Vector" d="M154.9 29.7C162 29.7 167.8 23.9 167.8 16.8C167.8 9.69999 162 3.89999 154.9 3.89999H3.90001C8.90001 12.5 8.90001 21.1 3.90001 29.7H154.9V29.7Z" fill="var(--fill-0, #EDEDED)"/>
</g>
<path id="Vector_2" d="M154.9 29.7C162.2 29.7 168.1 23.6 167.8 16.2C167.5 9.29998 161.5 4 154.6 4H2C0.9 4 0 3.1 0 2C0 0.9 0.9 0 2 0H155C164.3 0 171.8 7.49999 171.8 16.8C171.8 26.1 164.3 33.6 155 33.6H2C0.9 33.6 0 32.7 0 31.6C0 30.5 0.9 29.6 2 29.6H154.9V29.7Z" fill="var(--fill-0, #8F98FF)"/>
<path id="Vector_3" d="M162.4 6.39999L150.2 6.5L127.3 6.59998L81.4 6.69998L35.5 6.59998L12.6 6.5L5.2 6.39999C5.1 6.29999 5.1 6.19998 5 6.09998L12.5 6L35.4 5.89999L81.3 5.79999L127.2 5.89999L150.1 6L161.9 6.09998C162.2 6.19998 162.3 6.29999 162.4 6.39999ZM165.4 9.39999C165.4 9.29999 165.3 9.29998 165.3 9.19998L150.3 9L127.4 8.89999L81.5 8.79999L35.6 8.89999L12.7 9L6.40001 9.09998C6.40001 9.19998 6.5 9.3 6.5 9.5L12.7 9.59998L35.6 9.69998L81.5 9.79999L127.4 9.69998L150.3 9.59998L165.4 9.39999ZM167 12.4C167 12.4 167 12.3 166.9 12.3L150.2 12.1L127.3 12L81.4 11.9L35.5 12L12.6 12.1L7.2 12.2C7.2 12.3 7.2 12.5 7.3 12.6L12.7 12.7L35.6 12.8L81.5 12.9L127.4 12.8L150.3 12.7L167 12.4ZM165.3 24.5C165.3 24.4 165.4 24.4 165.4 24.3L150.3 24.1L127.4 24L81.5 23.9L35.6 24L12.7 24.1L6.5 24.2C6.5 24.3 6.40001 24.4 6.40001 24.6L12.7 24.7L35.6 24.8L81.5 24.9L127.4 24.8L150.3 24.7L165.3 24.5ZM166.9 21.4C166.9 21.4 166.9 21.3 167 21.3L150.3 21.1L127.4 21L81.5 20.9L35.6 21L12.7 21.1L7.3 21.2C7.3 21.3 7.3 21.5 7.2 21.6L12.6 21.7L35.5 21.8L81.4 21.9L127.3 21.8L150.2 21.7L166.9 21.4ZM167.7 18.4V18.3L150.2 18.1L127.3 18L81.4 17.9L35.5 18L12.6 18.1L7.60001 18.2C7.60001 18.3 7.60001 18.5 7.60001 18.6L12.6 18.7L35.5 18.8L81.4 18.9L127.3 18.8L150.2 18.7L167.7 18.4ZM167.7 15.4V15.3L150.3 15.1L127.4 15L81.5 14.9L35.6 15L12.7 15.1L7.7 15.2C7.7 15.3 7.7 15.5 7.7 15.6L12.7 15.7L35.6 15.8L81.5 15.9L127.4 15.8L150.3 15.7L167.7 15.4Z" fill="var(--fill-0, #E1E3EF)"/>
<path id="Vector_4" d="M56.5 28.6L63.1 24.8L69.6 28.6V11.9H56.5V28.6Z" fill="var(--fill-0, #8F98FF)"/>
</g>
</svg>
