<svg preserveAspectRatio="none" width="100%" height="100%" overflow="visible" style="display: block;" viewBox="0 0 171.8 33.6" fill="none" xmlns="http://www.w3.org/2000/svg">
<g id="Group">
<g id="Group_2">
<path id="Vector" d="M16.9 29.7C9.79999 29.7 4 23.9 4 16.8C4 9.7 9.79999 3.89999 16.9 3.89999H167.9C162.9 12.5 162.9 21.1 167.9 29.7H16.9Z" fill="var(--fill-0, #EDEDED)"/>
</g>
<path id="Vector_2" d="M16.9 29.7C9.59999 29.7 3.7 23.6 4 16.2C4.3 9.3 10.3 4 17.2 4H169.8C170.9 4 171.8 3.1 171.8 2C171.8 0.9 170.9 0 169.8 0H16.8C7.49999 0 0 7.5 0 16.8C0 26.1 7.49999 33.6 16.8 33.6H169.8C170.9 33.6 171.8 32.7 171.8 31.6C171.8 30.5 170.9 29.6 169.8 29.6H16.9V29.7Z" fill="var(--fill-0, #FF7648)"/>
<path id="Vector_3" d="M9.7 6.10001L21.5 6L44.4 5.89999L90.3 5.8L136.2 5.89999L159.1 6L166.6 6.10001C166.5 6.20001 166.5 6.29999 166.4 6.39999L159 6.5L136.1 6.60001L90.2 6.7L44.3 6.60001L21.4 6.5L9.2 6.39999C9.5 6.29999 9.6 6.20001 9.7 6.10001ZM21.5 9.5L44.4 9.60001L90.3 9.7L136.2 9.60001L159.1 9.5L165.3 9.39999C165.3 9.29999 165.4 9.2 165.4 9L159.1 8.89999L136.2 8.8L90.3 8.7L44.4 8.8L21.5 8.89999L6.5 9.10001C6.5 9.20001 6.39999 9.2 6.39999 9.3L21.5 9.5ZM21.5 12.5L44.4 12.6L90.3 12.7L136.2 12.6L159.1 12.5L164.5 12.4C164.5 12.3 164.5 12.1 164.6 12L159.2 11.9L136.3 11.8L90.4 11.7L44.5 11.8L21.6 11.9L4.89999 12.1C4.89999 12.1 4.89999 12.2 4.79999 12.2L21.5 12.5ZM166.6 27.2L159.2 27.1L136.3 27L90.4 26.9L44.5 27L21.6 27.1L9.39999 27.2C9.49999 27.3 9.6 27.4 9.7 27.4L21.5 27.5L44.4 27.6L90.3 27.7L136.2 27.6L159.1 27.5L166.6 27.4C166.7 27.5 166.7 27.3 166.6 27.2ZM21.5 24.6L44.4 24.7L90.3 24.8L136.2 24.7L159.1 24.6L165.4 24.5C165.4 24.4 165.3 24.3 165.3 24.1L159.1 24L136.2 23.9L90.3 23.8L44.4 23.9L21.5 24L6.39999 24.2C6.39999 24.3 6.5 24.3 6.5 24.4L21.5 24.6ZM21.5 21.6L44.4 21.7L90.3 21.8L136.2 21.7L159.1 21.6L164.5 21.5C164.5 21.4 164.5 21.2 164.4 21.1L159 21L136.1 20.9L90.2 20.8L44.3 20.9L21.4 21L4.7 21.2C4.7 21.2 4.69999 21.3 4.79999 21.3L21.5 21.6ZM21.5 18.6L44.4 18.7L90.3 18.8L136.2 18.7L159.1 18.6L164.1 18.5C164.1 18.4 164.1 18.2 164.1 18.1L159.1 18L136.2 17.9L90.3 17.8L44.4 17.9L21.5 18L4 18.2V18.3L21.5 18.6ZM21.5 15.6L44.4 15.7L90.3 15.8L136.2 15.7L159.1 15.6L164.1 15.5C164.1 15.4 164.1 15.2 164.1 15.1L159.1 15L136.2 14.9L90.3 14.8L44.4 14.9L21.5 15L4.09999 15.2V15.3L21.5 15.6Z" fill="var(--fill-0, #E1E3EF)"/>
<path id="Vector_4" d="M155.7 22.7L149.1 18.9L142.6 22.7V6H155.7V22.7Z" fill="var(--fill-0, #FE9946)"/>
</g>
</svg>
